<svg width="84" height="75" viewBox="0 0 84 75" fill="none" xmlns="http://www.w3.org/2000/svg">
<path d="M83.2501 20.375L78.8751 6.33333C77.9584 2.58333 74.7084 0 70.9168 0H13.0418C9.29176 0 6.00009 2.625 5.12509 6.33333L0.750089 20.375C-1.16658 28.5833 4.29176 33.3333 4.50009 33.5833V66.6667C4.50009 71.25 8.25009 75 12.8334 75H71.1668C75.7501 75 79.5001 71.25 79.5001 66.6667V33.5833C84.1667 28.9167 84.0417 23.5417 83.2501 20.375ZM46.1668 8.33333H54.3334L56.5834 23C56.9584 25.9583 54.9584 29.1667 51.2501 29.1667C48.4584 29.1667 46.1668 26.7083 46.1668 23.7083V8.33333ZM18.8334 24.4167C18.5001 27.125 16.3334 29.1667 13.7918 29.1667C9.91676 29.1667 8.16676 25.125 8.83342 22.3333L13.0418 8.33333H21.2501L18.8334 24.4167ZM35.7501 54.1667H29.5001V58.3333H35.7501C36.9168 58.3333 37.8334 59.25 37.8334 60.4167C37.8334 61.5833 36.9168 62.5 35.7501 62.5H27.4168C26.2501 62.5 25.3334 61.5833 25.3334 60.4167V52.0833C25.3334 50.9167 26.2501 50 27.4168 50H33.6668V45.8333H27.4168C26.2501 45.8333 25.3334 44.9167 25.3334 43.75C25.3334 42.5833 26.2501 41.6667 27.4168 41.6667H35.7501C36.9168 41.6667 37.8334 42.5833 37.8334 43.75V52.0833C37.8334 53.25 36.9168 54.1667 35.7501 54.1667ZM37.8334 23.7083C37.8334 26.7083 35.5418 29.1667 32.4584 29.1667C29.3334 29.1667 27.0418 26.25 27.3751 23L29.6668 8.33333H37.8334V23.7083ZM56.5834 62.5C55.4168 62.5 54.5001 61.5833 54.5001 60.4167V54.1667H48.2501C47.0834 54.1667 46.1668 53.25 46.1668 52.0833V43.75C46.1668 42.5833 47.0834 41.6667 48.2501 41.6667C49.4168 41.6667 50.3334 42.5833 50.3334 43.75V50H54.5001V43.75C54.5001 42.5833 55.4168 41.6667 56.5834 41.6667C57.7501 41.6667 58.6668 42.5833 58.6668 43.75V60.4167C58.6668 61.5833 57.7501 62.5 56.5834 62.5ZM70.2084 29.1667C67.6668 29.1667 65.4584 27.125 65.1668 24.4167L62.7501 8.33333L70.7917 8.29167L75.1667 22.3333C75.8334 25.125 74.1251 29.1667 70.2084 29.1667Z" fill="#FDC12D" fill-opacity="0.85"/>
</svg>
