<svg width="14" height="13" viewBox="0 0 14 13" fill="none" xmlns="http://www.w3.org/2000/svg">
<path d="M10.2746 8.02682C11.1219 7.00132 11.5013 5.72987 11.3371 4.46684C11.1729 3.20382 10.4771 2.04237 9.38898 1.21485C8.30083 0.387341 6.90056 -0.0452087 5.46831 0.0037441C4.03607 0.0526969 2.67747 0.579542 1.66433 1.47888C0.651194 2.37821 0.0582276 3.58371 0.00406556 4.8542C-0.0500965 6.12468 0.43854 7.36646 1.37222 8.3311C2.30589 9.29574 3.61575 9.91209 5.03974 10.0569C6.46372 10.2016 7.89682 9.8641 9.05232 9.11185H9.05145C9.07769 9.14289 9.10569 9.17239 9.13719 9.2011L12.5058 12.1892C12.6699 12.3348 12.8924 12.4167 13.1245 12.4168C13.3566 12.4168 13.5793 12.3351 13.7435 12.1896C13.9076 12.0441 13.9999 11.8466 14 11.6407C14.0001 11.4349 13.908 11.2374 13.7439 11.0917L10.3753 8.10366C10.344 8.07557 10.3104 8.0504 10.2746 8.02682ZM10.5004 5.04339C10.5004 5.60396 10.3759 6.15905 10.1341 6.67695C9.89223 7.19485 9.53776 7.66543 9.0909 8.06182C8.64403 8.4582 8.11352 8.77263 7.52967 8.98715C6.94581 9.20168 6.32003 9.31209 5.68807 9.31209C5.05611 9.31209 4.43033 9.20168 3.84648 8.98715C3.26262 8.77263 2.73211 8.4582 2.28525 8.06182C1.83838 7.66543 1.48391 7.19485 1.24207 6.67695C1.00023 6.15905 0.875753 5.60396 0.875753 5.04339C0.875753 3.91126 1.38276 2.8255 2.28525 2.02496C3.18773 1.22443 4.41177 0.774689 5.68807 0.774689C6.96438 0.774689 8.18841 1.22443 9.0909 2.02496C9.99338 2.8255 10.5004 3.91126 10.5004 5.04339Z" fill="black"/>
</svg>
