<svg width="74" height="90" viewBox="0 0 74 90" fill="none" xmlns="http://www.w3.org/2000/svg">
<path d="M73.6364 40.9091C73.6364 63.6136 57.9273 84.8455 36.8182 90C15.7091 84.8455 0 63.6136 0 40.9091V16.3636L36.8182 0L73.6364 16.3636V40.9091ZM36.8182 81.8182C52.1591 77.7273 65.4545 59.4818 65.4545 41.8091V21.6818L36.8182 8.91818L8.18182 21.6818V41.8091C8.18182 59.4818 21.4773 77.7273 36.8182 81.8182ZM48.2727 40.9091V34.7727C48.2727 29.0455 42.5455 24.5455 36.8182 24.5455C31.0909 24.5455 25.3636 29.0455 25.3636 34.7727V40.9091C22.9091 40.9091 20.4545 43.3636 20.4545 45.8182V60.1364C20.4545 63 22.9091 65.4545 25.3636 65.4545H47.8636C50.7273 65.4545 53.1818 63 53.1818 60.5455V46.2273C53.1818 43.3636 50.7273 40.9091 48.2727 40.9091ZM42.9545 40.9091H30.6818V34.7727C30.6818 31.5 33.5455 29.4545 36.8182 29.4545C40.0909 29.4545 42.9545 31.5 42.9545 34.7727V40.9091Z" fill="#FDC12D" fill-opacity="0.85"/>
</svg>
