<svg width="84" height="84" viewBox="0 0 84 84" fill="none" xmlns="http://www.w3.org/2000/svg">
<path d="M80.4167 34.0001C79.2459 32.5945 77.7808 31.4629 76.1249 30.6854C74.469 29.9079 72.6627 29.5032 70.8333 29.5001H51.8333L54.1667 23.5418C55.1372 20.9329 55.4604 18.1276 55.1086 15.3664C54.7568 12.6053 53.7404 9.97063 52.1466 7.68856C50.5528 5.40649 48.4293 3.54509 45.9581 2.26403C43.4869 0.982978 40.7418 0.320504 37.9583 0.333438C37.1568 0.33511 36.3728 0.567918 35.7003 1.00395C35.0278 1.43998 34.4953 2.06073 34.1667 2.79177L22.2917 29.5001H12.5C9.18479 29.5001 6.00537 30.8171 3.66117 33.1613C1.31696 35.5055 0 38.6849 0 42.0001V71.1668C0 74.482 1.31696 77.6614 3.66117 80.0056C6.00537 82.3498 9.18479 83.6668 12.5 83.6668H65.5417C68.4659 83.6658 71.2972 82.6396 73.543 80.7669C75.7888 78.8941 77.307 76.2932 77.8333 73.4168L83.125 44.2501C83.4523 42.4475 83.3793 40.595 82.9113 38.8238C82.4433 37.0525 81.5916 35.4057 80.4167 34.0001ZM20.8333 75.3334H12.5C11.3949 75.3334 10.3351 74.8944 9.55372 74.113C8.77232 73.3316 8.33333 72.2718 8.33333 71.1668V42.0001C8.33333 40.895 8.77232 39.8352 9.55372 39.0538C10.3351 38.2724 11.3949 37.8334 12.5 37.8334H20.8333V75.3334ZM75 42.7501L69.7083 71.9168C69.5308 72.8874 69.0146 73.7636 68.2516 74.3893C67.4886 75.0149 66.5283 75.3495 65.5417 75.3334H29.1667V34.5418L40.5 9.04177C41.6666 9.38188 42.75 9.96013 43.6819 10.74C44.6138 11.5199 45.3738 12.4846 45.9141 13.573C46.4545 14.6614 46.7633 15.8501 46.8211 17.0639C46.8789 18.2776 46.6844 19.4902 46.25 20.6251L44.0417 26.5834C43.5711 27.8428 43.4122 29.1974 43.5786 30.5315C43.745 31.8656 44.2317 33.1396 44.9972 34.2449C45.7627 35.3501 46.7842 36.2537 47.9746 36.8786C49.165 37.5035 50.4889 37.8311 51.8333 37.8334H70.8333C71.4454 37.8324 72.0503 37.9663 72.6048 38.2256C73.1593 38.4848 73.6499 38.8631 74.0417 39.3334C74.443 39.7973 74.7371 40.344 74.9027 40.9347C75.0684 41.5253 75.1016 42.1452 75 42.7501Z" fill="#FDC12D" fill-opacity="0.85"/>
</svg>
