<svg width="70" height="88" viewBox="0 0 70 88" fill="none" xmlns="http://www.w3.org/2000/svg">
<path d="M28.75 65.875H53.75V72.125H28.75V65.875ZM16.25 65.875H22.5V72.125H16.25V65.875ZM28.75 50.25H53.75V56.5H28.75V50.25ZM16.25 50.25H22.5V56.5H16.25V50.25ZM28.75 34.625H53.75V40.875H28.75V34.625ZM16.25 34.625H22.5V40.875H16.25V34.625Z" fill="#FDC12D" fill-opacity="0.85"/>
<path d="M63.125 9.625H53.75V6.5C53.75 4.8424 53.0915 3.25268 51.9194 2.08058C50.7473 0.90848 49.1576 0.25 47.5 0.25H22.5C20.8424 0.25 19.2527 0.90848 18.0806 2.08058C16.9085 3.25268 16.25 4.8424 16.25 6.5V9.625H6.875C5.2174 9.625 3.62768 10.2835 2.45558 11.4556C1.28348 12.6277 0.625 14.2174 0.625 15.875V81.5C0.625 83.1576 1.28348 84.7473 2.45558 85.9194C3.62768 87.0915 5.2174 87.75 6.875 87.75H63.125C64.7826 87.75 66.3723 87.0915 67.5444 85.9194C68.7165 84.7473 69.375 83.1576 69.375 81.5V15.875C69.375 14.2174 68.7165 12.6277 67.5444 11.4556C66.3723 10.2835 64.7826 9.625 63.125 9.625ZM22.5 6.5H47.5V19H22.5V6.5ZM63.125 81.5H6.875V15.875H16.25V25.25H53.75V15.875H63.125V81.5Z" fill="#FDC12D" fill-opacity="0.85"/>
</svg>
